<svg width="100" height="100" viewBox="0 0 100 100" fill="none" xmlns="http://www.w3.org/2000/svg">
<circle cx="26.385" cy="41.8876" r="17.2006" fill="#FFDE91"/>
<ellipse cx="9.72668" cy="10.4773" rx="9.72668" ry="10.4773" transform="matrix(0.94111 -0.331946 0.363039 0.929246 13.454 36.5635)" fill="#CD9460"/>
<path fill-rule="evenodd" clip-rule="evenodd" d="M31.9906 44.2349C32.2596 44.3076 32.4219 44.58 32.353 44.8433C31.6054 47.7011 29.8961 48.9811 28.0682 49.289C26.2994 49.587 24.4898 48.9611 23.4952 48.1574C23.2787 47.9824 23.2441 47.6706 23.418 47.4608C23.5919 47.2511 23.9083 47.2229 24.1248 47.3979C24.9029 48.0266 26.4168 48.5606 27.8805 48.314C29.2852 48.0774 30.7175 47.1082 31.3788 44.5801C31.4477 44.3168 31.7216 44.1623 31.9906 44.2349Z" fill="#68372E"/>
<path d="M35.9661 39.8334C36.119 40.3624 35.4761 40.7294 35.0728 40.3452C34.7869 40.0963 33.6621 38.8165 33.1477 38.358C32.1945 37.312 30.9484 37.3477 29.798 38.1523C28.8422 38.8252 27.6534 39.5298 26.27 40.0764C24.9212 40.6115 23.7397 40.63 22.7831 40.4384C21.2425 40.1299 19.459 39.7836 18.4979 40.9843C17.5944 42.113 17.1279 43.5737 17.382 45.1703L17.7954 47.2954C17.8397 47.523 17.5362 47.641 17.4049 47.4472C17.4049 47.4472 13.3621 42.1603 14.0405 40.0145C14.457 38.7002 15.5288 36.1426 15.7833 34.7861C15.9944 33.6612 16.8244 32.4845 19.0017 31.6822C24.4613 29.6703 32.8186 29.7926 34.1696 33.9612C34.9182 36.2712 35.5508 38.397 35.9661 39.8334Z" fill="#2C1338"/>
<circle cx="56.263" cy="19.5156" r="17.1872" fill="#FCE5DB"/>
<path d="M42.8953 20.8612L48.4956 22.8207L64.5902 28.4523C65.0697 28.62 65.6079 28.4084 65.8201 27.9461C68.4305 22.2608 70.4741 11.407 60.0127 7.74655C49.5445 4.08371 44.0003 13.7276 42.2868 19.7245C42.1488 20.2073 42.4204 20.695 42.8953 20.8612Z" fill="#68372E"/>
<ellipse cx="8.76274" cy="9.44128" rx="8.76274" ry="9.44128" transform="matrix(0.943547 0.325246 -0.357104 0.931649 50.7883 7.53613)" fill="#CD9460"/>
<path fill-rule="evenodd" clip-rule="evenodd" d="M58.9505 23.1272C59.1067 23.3501 59.0471 23.6588 58.8174 23.8167C56.5561 25.3716 54.585 25.2957 53.1247 24.4712C51.7161 23.676 50.8454 22.2176 50.6478 21.0938C50.6007 20.8255 50.7843 20.5663 51.058 20.5147C51.3317 20.4631 51.5918 20.6387 51.639 20.907C51.7894 21.7626 52.4968 22.9667 53.638 23.611C54.7276 24.2262 56.2781 24.3669 58.2519 23.0097C58.4816 22.8517 58.7944 22.9044 58.9505 23.1272Z" fill="#EFCAE9"/>
<path d="M63.9114 20.1103L48.7643 14.7924C48.1519 14.5773 47.917 13.849 48.2867 13.3116L50.7578 9.7196C50.9296 9.46982 51.2055 9.3081 51.5084 9.27965L57.8607 8.68288C58.0568 8.66446 58.2531 8.70305 58.4253 8.79387L64.2182 11.8495C64.5133 12.0051 64.7071 12.2976 64.7343 12.6283L65.2652 19.0793C65.3246 19.8015 64.6012 20.3525 63.9114 20.1103Z" fill="#68372E"/>
<circle cx="48.4121" cy="71.646" r="17.1872" fill="#ABA0AF"/>
<ellipse cx="48.1373" cy="74.3633" rx="8.93737" ry="8.99609" fill="#FCE5DB"/>
<path d="M52.6394 76.1967C52.5067 76.1126 52.3465 76.0834 52.1927 76.1155C52.0389 76.1476 51.9036 76.2383 51.8154 76.3685C51.4425 76.9395 50.9336 77.4085 50.3344 77.7331C49.7353 78.0577 49.0649 78.2277 48.3838 78.2277C47.7027 78.2277 47.0324 78.0577 46.4332 77.7331C45.8341 77.4085 45.3251 76.9395 44.9522 76.3685C44.8636 76.2411 44.729 76.1533 44.5768 76.1239C44.4246 76.0944 44.267 76.1255 44.1374 76.2106C44.0078 76.2957 43.9164 76.4282 43.8827 76.5797C43.849 76.7313 43.8756 76.89 43.9568 77.0222C44.4373 77.7597 45.0937 78.3655 45.8667 78.7848C46.6397 79.2041 47.5048 79.4237 48.3838 79.4237C49.2629 79.4237 50.128 79.2041 50.901 78.7848C51.674 78.3655 52.3304 77.7597 52.8109 77.0222C52.8973 76.89 52.9278 76.7287 52.8957 76.5739C52.8635 76.4191 52.7713 76.2834 52.6394 76.1967Z" fill="#564260"/>
<path d="M51.658 65.9136C51.5792 65.8669 51.511 65.8041 51.4579 65.7292C51.4049 65.6543 51.3682 65.5691 51.3502 65.479C51.3322 65.389 51.3334 65.2962 51.3536 65.2066C51.3738 65.1171 51.4126 65.0328 51.4675 64.9593L51.5247 64.8877L51.5485 64.8591L51.6199 64.7732C51.8516 64.4808 52.0452 64.1601 52.1962 63.8188C52.4377 63.2582 52.5625 62.6542 52.563 62.0437C52.5637 61.6386 52.5076 61.2354 52.3963 60.846C52.2304 60.2568 51.9455 59.7079 51.5595 59.2334C51.1734 58.7589 50.6942 58.3687 50.1517 58.0871C49.6091 57.8055 49.0146 57.6384 48.405 57.5961C47.7954 57.5539 47.1836 57.6374 46.6075 57.8414C46.0314 58.0455 45.5032 58.3658 45.0555 58.7825C44.6079 59.1993 44.2504 59.7036 44.005 60.2643C43.7597 60.825 43.6318 61.4302 43.6292 62.0424C43.6266 62.6546 43.7494 63.2608 43.9899 63.8236C44.1449 64.1737 44.3416 64.5038 44.5758 64.8066L44.6043 64.84L44.7044 64.9784C44.7587 65.0528 44.7966 65.1379 44.8158 65.228C44.8349 65.3182 44.8348 65.4114 44.8155 65.5015C44.7962 65.5916 44.758 65.6767 44.7036 65.751C44.6491 65.8253 44.5796 65.8872 44.4996 65.9327L44.2186 66.0949C43.1033 66.6385 42.1136 67.4095 41.3131 68.3586C40.5126 69.3077 39.9189 70.4139 39.5701 71.6063C39.9753 71.6671 40.3844 71.699 40.7941 71.7018C42.3703 71.7007 43.9216 71.3078 45.3089 70.5583C46.6963 69.8088 47.8763 68.726 48.7432 67.4072C49.5414 68.7673 50.6801 69.8952 52.0466 70.6793C53.4132 71.4635 54.9603 71.8768 56.5352 71.8783H56.6971C56.3635 70.5664 55.7365 69.3476 54.8635 68.3143C53.9905 67.2809 52.8944 66.46 51.658 65.9136Z" fill="#FFBC7E"/>
<path d="M84.6238 56.945L83.5915 54.359C77.485 53.0732 77.3927 52.3379 77.3448 53.4142C77.7324 55.9999 76.6987 55.4068 75.8865 58.4152C75.3807 62.1944 74.6075 61.3996 74.408 65.1868C74.696 68.6011 74.0899 85.4414 75.7046 94.1033L81.1391 94.0894C80.9523 92.5793 82.1706 93.3896 81.6213 91.2382C81.2401 89.7454 81.4102 83.3446 81.4129 78.9474C81.8553 83.4967 83.0036 90.2724 84.2924 94.0697L90.436 94.0678C90.0161 92.3054 91.434 93.1387 90.3284 91.205C88.0645 85.1767 87.8202 65.59 87.6822 63.7643C87.6822 57.988 85.7314 58.4368 84.6238 56.945Z" fill="#2C1338"/>
<path d="M71.35 95.4073C71.4596 95.0323 71.6955 94.7016 72.0217 94.466C72.348 94.2303 72.7465 94.1025 73.1565 94.1023H81.1389C80.9839 94.2772 80.877 94.4859 80.8279 94.7097L80.6913 95.3491L80.5586 95.9564C80.4367 96.4273 80.1561 96.8474 79.7596 97.1529C79.3631 97.4584 78.8723 97.6326 78.3619 97.6489H73.1505C72.8637 97.6476 72.5809 97.5838 72.3241 97.4624C72.0673 97.341 71.8433 97.1652 71.6694 96.9487C71.4954 96.7321 71.3762 96.4805 71.3208 96.2133C71.2654 95.9461 71.2754 95.6703 71.35 95.4073Z" fill="#FFDE91"/>
<path d="M81.3673 95.365C81.4684 94.9911 81.6861 94.6616 81.9872 94.4267C82.2883 94.1918 82.6562 94.0644 83.0345 94.0642H90.4016C90.2585 94.2385 90.1599 94.4465 90.1146 94.6696L89.9885 95.3068L89.866 95.9122C89.7535 96.3815 89.4946 96.8002 89.1286 97.1047C88.7627 97.4092 88.3097 97.5828 87.8387 97.5991H83.029C82.7643 97.5978 82.5033 97.5342 82.2663 97.4132C82.0293 97.2922 81.8226 97.117 81.662 96.9012C81.5015 96.6853 81.3914 96.4346 81.3403 96.1682C81.2892 95.9019 81.2985 95.6271 81.3673 95.365Z" fill="#FFDE91"/>
<path d="M64.149 48.5781C62.3916 50.1861 65.2474 51.8785 66.895 52.5236L66.7381 49.397C66.6073 48.454 65.9064 46.9701 64.149 48.5781Z" fill="#CD9460"/>
<path fill-rule="evenodd" clip-rule="evenodd" d="M72.2456 52.5263C72.1047 52.5953 71.9395 52.5941 71.7995 52.5231L58.2211 45.6316C57.8554 45.4459 57.8564 44.9232 58.2229 44.739L67.1756 40.2389C67.3164 40.1681 67.4822 40.1678 67.6232 40.2381L81.4484 47.1274C81.8192 47.3122 81.8173 47.8419 81.4452 48.024L77.1882 50.1074L72.2456 52.5263Z" fill="#FCE5DB"/>
<path fill-rule="evenodd" clip-rule="evenodd" d="M85.1871 35.6809C85.1871 32.9261 83.9216 30.9666 81.1091 30.9666C78.2962 30.9666 77.212 32.5871 76.272 34.4062C76.272 36.2324 75.3875 40.9202 79.8424 40.7392L79.7884 42.3707L84.0211 40.8357L84.08 38.0385C85.9924 37.3895 85.0715 36.5145 85.1871 35.6809Z" fill="#CD9460"/>
<path d="M79.7012 41.8929C79.7519 41.8736 79.8009 41.851 79.8482 41.8246C81.3198 41.0043 82.8622 40.5461 83.9275 41.178C86.0099 42.4136 87.3438 44.1661 88.6228 51.4514C89.6709 57.4218 89.7415 67.7047 88.2742 69.8938C86.8062 72.0826 76.8842 72.1489 75.0613 70.052C73.7114 68.4992 74.2886 61.6854 75.3305 56.0843C75.4949 55.2004 74.4047 54.3914 73.5061 54.4196C73.4216 54.4222 73.3362 54.4225 73.2498 54.4202C68.4357 54.2924 67.3736 54.1968 65.9607 52.6116C65.2992 51.7654 65.1317 50.7246 65.1075 50.0007C65.0907 49.4971 65.525 49.1332 66.0287 49.1489L72.2797 49.3444C72.7611 49.3595 73.1792 49.027 73.3281 48.569C74.3255 45.5019 77.0481 42.8992 79.7012 41.8929Z" fill="#6B5A74"/>
<path fill-rule="evenodd" clip-rule="evenodd" d="M83.7376 31.6949C85.3119 33.237 84.9222 35.1987 85.5211 36.7743C85.7162 37.2877 85.6546 37.9167 85.1909 38.211C83.1322 39.5176 79.7242 40.6948 79.0113 37.3612C78.5564 34.0142 77.4599 35.1928 76.6146 34.7481C76.3472 34.6073 76.3059 34.2597 76.3948 33.9708C76.5907 33.3339 76.8539 32.7613 77.6097 32.021C78.9871 30.5608 82.2064 30.2412 83.7376 31.6949Z" fill="#FFBC7E"/>
<path fill-rule="evenodd" clip-rule="evenodd" d="M81.7497 34.5715C81.8552 35.182 82.5855 35.7412 82.5541 36.36C82.4127 39.1401 82.4152 45.8373 85.775 45.2852C89.9476 44.5996 85.9046 40.3643 86.7863 37.8414C86.8107 37.7715 86.8328 37.6976 86.8447 37.6245C87.6665 32.5755 84.9291 32.0134 83.4175 32.5733C83.3472 32.5993 83.2763 32.6206 83.2043 32.6413C82.8763 32.7358 81.9087 33.1203 81.7355 34.3976C81.7355 34.4604 81.7404 34.5183 81.7497 34.5715Z" fill="#FFBC7E"/>
</svg>
